<svg width="165" height="56" viewBox="0 0 165 56" fill="none" xmlns="http://www.w3.org/2000/svg">
<path d="M151.435 0.499935H13.1102C12.606 0.499935 12.1078 0.499935 11.6049 0.502685C11.184 0.505435 10.7664 0.513423 10.3414 0.520147C9.41808 0.531012 8.49696 0.612239 7.58601 0.763123C6.67635 0.917292 5.79517 1.20794 4.9723 1.62525C4.15044 2.04608 3.39947 2.59292 2.74666 3.24591C2.09042 3.89706 1.54339 4.64971 1.12661 5.4749C0.708675 6.29846 0.418881 7.18097 0.267231 8.09197C0.11414 9.00181 0.0317603 9.92215 0.0208312 10.8447C0.00807125 11.2663 0.00672375 11.6893 0 12.1109V43.893C0.00672375 44.3199 0.00807125 44.7335 0.0208312 45.1606C0.0317636 46.0831 0.114143 47.0034 0.267231 47.9132C0.418462 48.8248 0.708274 49.7078 1.12661 50.5316C1.5432 51.3542 2.0903 52.1038 2.74666 52.7513C3.397 53.4072 4.14845 53.9544 4.9723 54.372C5.79517 54.7904 6.67624 55.0828 7.58601 55.2394C8.49711 55.389 9.41814 55.4703 10.3414 55.4825C10.7664 55.4918 11.184 55.4972 11.6049 55.4972C12.1078 55.4999 12.606 55.4999 13.1102 55.4999H151.435C151.929 55.4999 152.432 55.4999 152.926 55.4972C153.345 55.4972 153.774 55.4918 154.193 55.4825C155.115 55.471 156.034 55.3897 156.943 55.2394C157.856 55.0817 158.74 54.7894 159.567 54.372C160.39 53.9542 161.141 53.407 161.791 52.7513C162.446 52.1012 162.994 51.3522 163.416 50.5316C163.831 49.7072 164.118 48.8242 164.267 47.9132C164.42 47.0033 164.505 46.0832 164.522 45.1606C164.527 44.7335 164.527 44.3199 164.527 43.893C164.538 43.3935 164.538 42.8967 164.538 42.389V13.6121C164.538 13.1086 164.538 12.6091 164.527 12.1109C164.527 11.6893 164.527 11.2663 164.522 10.8447C164.505 9.92202 164.42 9.00188 164.267 8.09191C164.117 7.18145 163.83 6.299 163.416 5.47485C162.567 3.82083 161.221 2.47447 159.567 1.62512C158.74 1.20884 157.856 0.918265 156.943 0.763C156.034 0.611451 155.115 0.530195 154.193 0.519955C153.774 0.513245 153.345 0.505187 152.926 0.502506C152.432 0.499756 151.929 0.499756 151.435 0.499756V0.499935Z" fill="#A6A6A6"/>
<path d="M11.6117 54.2969C11.1928 54.2969 10.7839 54.2915 10.3683 54.2822C9.50724 54.2709 8.64821 54.196 7.79823 54.0579C7.00566 53.9214 6.23788 53.6675 5.52021 53.3045C4.80912 52.9446 4.16054 52.4726 3.59933 51.9067C3.03 51.3475 2.55601 50.6988 2.19613 49.9865C1.83229 49.2696 1.58049 48.5011 1.44951 47.7079C1.30805 46.8555 1.23152 45.9937 1.22057 45.1297C1.21185 44.8398 1.20044 43.8742 1.20044 43.8742V12.111C1.20044 12.111 1.21259 11.1603 1.22064 10.881C1.23112 10.0184 1.30721 9.1579 1.44824 8.30688C1.57947 7.51147 1.83146 6.74078 2.1955 6.02149C2.55405 5.30967 3.02541 4.66056 3.59132 4.09931C4.15658 3.53273 4.80723 3.05833 5.51953 2.69341C6.23556 2.33163 7.00189 2.07951 7.79285 1.9455C8.64562 1.80602 9.50764 1.73062 10.3717 1.71991L11.6124 1.70312H152.919L154.175 1.72059C155.031 1.73076 155.885 1.80549 156.73 1.94415C157.529 2.07984 158.303 2.33372 159.027 2.69744C160.454 3.43286 161.616 4.59635 162.348 6.02485C162.706 6.73917 162.954 7.50357 163.084 8.29211C163.227 9.15011 163.307 10.0174 163.323 10.887C163.327 11.2764 163.327 11.6947 163.327 12.111C163.338 12.6266 163.338 13.1174 163.338 13.6122V42.3891C163.338 42.8886 163.338 43.3761 163.327 43.8675C163.327 44.3147 163.327 44.7243 163.322 45.1458C163.306 46 163.227 46.8518 163.087 47.6944C162.958 48.4934 162.708 49.2678 162.344 49.9907C161.982 50.6952 161.51 51.3382 160.948 51.896C160.386 52.4649 159.736 52.9397 159.023 53.3019C158.301 53.6677 157.528 53.9225 156.73 54.0579C155.88 54.1967 155.021 54.2717 154.16 54.2822C153.757 54.2915 153.335 54.2969 152.926 54.2969L151.435 54.2996L11.6117 54.2969Z" fill="black"/>
<path d="M34.0572 28.4134C34.0873 26.0808 35.3102 23.9261 37.2975 22.7044C36.0381 20.9057 34.0043 19.8062 31.8097 19.7375C29.5007 19.4952 27.2623 21.1192 26.0857 21.1192C24.8863 21.1192 23.0747 19.7616 21.124 19.8017C18.5573 19.8847 16.2225 21.3086 14.9737 23.5526C12.3145 28.1566 14.298 34.9231 16.8454 38.6447C18.1199 40.467 19.6094 42.5027 21.5584 42.4305C23.4656 42.3514 24.1779 41.2143 26.48 41.2143C28.7608 41.2143 29.4291 42.4305 31.4177 42.3846C33.4642 42.3513 34.7536 40.5541 35.9834 38.7145C36.8991 37.416 37.6037 35.9809 38.0712 34.4623C35.6406 33.4343 34.0601 31.0526 34.0572 28.4134Z" fill="white"/>
<path d="M30.3012 17.2901C31.417 15.9505 31.9668 14.2288 31.8337 12.4905C30.1289 12.6695 28.5542 13.4843 27.4232 14.7724C26.3065 16.0434 25.7408 17.7061 25.8506 19.3944C27.5783 19.4121 29.2186 18.6366 30.3012 17.2901Z" fill="white"/>
<path fill-rule="evenodd" clip-rule="evenodd" d="M51.6571 37.8171H58.1655L59.7272 42.4322H62.5309L56.3662 25.3574H53.5021L47.3374 42.4322H50.0941L51.6571 37.8171ZM57.4902 35.6874H52.3312L54.8758 28.1974H54.947L57.4902 35.6874Z" fill="white"/>
<path fill-rule="evenodd" clip-rule="evenodd" d="M70.6495 42.5625C73.7741 42.5625 75.8446 40.077 75.8446 36.2085C75.8446 32.3507 73.7619 29.8531 70.6025 29.8531C68.9767 29.8007 67.4537 30.6463 66.6386 32.0539H66.5916V29.9834H64.1182V46.5505H66.6735V40.3845H66.7326C67.513 41.801 69.0344 42.647 70.6495 42.5625ZM69.9284 32.0311C71.9157 32.0311 73.2182 33.6881 73.2182 36.2085C73.2182 38.7517 71.9157 40.3966 69.9284 40.3966C67.976 40.3966 66.6628 38.7168 66.6628 36.2085C66.6628 33.723 67.976 32.0311 69.9284 32.0311Z" fill="white"/>
<path fill-rule="evenodd" clip-rule="evenodd" d="M84.3511 42.5625C87.4757 42.5625 89.5463 40.077 89.5463 36.2085C89.5463 32.3507 87.4637 29.8531 84.3041 29.8531C82.6783 29.8007 81.1553 30.6463 80.3402 32.0539H80.2932V29.9834H77.8198V46.5505H80.3751V40.3845H80.4342C81.2147 41.801 82.736 42.647 84.3511 42.5625ZM83.63 32.0311C85.6173 32.0311 86.9198 33.6881 86.9198 36.2085H86.9198C86.9198 38.7517 85.6174 40.3966 83.63 40.3966C81.6776 40.3966 80.3644 38.7168 80.3644 36.2085C80.3644 33.723 81.6776 32.0311 83.63 32.0311Z" fill="white"/>
<path d="M98.6018 37.6748C98.7912 39.368 100.436 40.4798 102.684 40.4798C104.838 40.4798 106.387 39.3679 106.387 37.8412C106.387 36.5159 105.453 35.7223 103.24 35.1785L101.027 34.6454C97.8915 33.8881 96.436 32.4218 96.436 30.0424C96.436 27.0963 99.0033 25.0728 102.649 25.0728C106.257 25.0728 108.73 27.0963 108.814 30.0424H106.234C106.08 28.3384 104.671 27.3098 102.613 27.3098C100.554 27.3098 99.1456 28.3505 99.1456 29.8651C99.1456 31.0723 100.045 31.7826 102.246 32.3264L104.127 32.7883C107.631 33.6168 109.086 35.024 109.086 37.5216C109.086 40.716 106.542 42.7168 102.495 42.7168C98.7079 42.7168 96.1512 40.763 95.9861 37.6746L98.6018 37.6748Z" fill="white"/>
<path d="M114.601 27.0371V29.9832H116.968V32.0067H114.601V38.8696C114.601 39.9358 115.075 40.4326 116.116 40.4326C116.397 40.4277 116.677 40.408 116.956 40.3735V42.385C116.488 42.4724 116.013 42.512 115.537 42.5031C113.017 42.5031 112.034 41.5565 112.034 39.1422V32.0067H110.224V29.9832H112.034V27.0371H114.601Z" fill="white"/>
<path fill-rule="evenodd" clip-rule="evenodd" d="M124.244 29.8303C120.646 29.8303 118.339 32.2916 118.339 36.2085C118.339 40.1361 120.623 42.5867 124.244 42.5867C127.865 42.5867 130.149 40.1361 130.149 36.2085C130.149 32.2916 127.853 29.8303 124.244 29.8303ZM124.244 31.9358C126.314 31.9358 127.545 33.5216 127.545 36.2085H127.545C127.545 38.9061 126.314 40.4799 124.244 40.4799C122.173 40.4799 120.943 38.9061 120.943 36.2085C120.943 33.5337 122.173 31.9358 124.244 31.9358Z" fill="white"/>
<path d="M132.256 29.9833H134.693V32.1022H134.752C135.092 30.7381 136.342 29.7994 137.747 29.853C138.041 29.852 138.335 29.884 138.622 29.9484V32.3385C138.25 32.2249 137.862 32.1727 137.474 32.1841C136.723 32.1536 135.996 32.453 135.484 33.0036C134.972 33.5543 134.726 34.3012 134.811 35.0482V42.4321H132.256L132.256 29.9833Z" fill="white"/>
<path fill-rule="evenodd" clip-rule="evenodd" d="M145.043 42.5864C147.859 42.5864 150.06 41.0355 150.403 38.7756L147.977 38.7756C147.511 39.9307 146.342 40.6428 145.102 40.5266C144.172 40.5608 143.273 40.194 142.632 39.5193C141.991 38.8447 141.671 37.9273 141.753 37.0005V36.8461H150.546V35.9706C150.546 32.196 148.38 29.8301 144.936 29.8301C141.434 29.8301 139.174 32.3626 139.174 36.2673C139.174 40.16 141.422 42.5864 145.043 42.5864ZM147.989 35.0602L141.765 35.0602C141.763 34.2197 142.097 33.4132 142.692 32.8199C143.288 32.2265 144.095 31.8956 144.936 31.9006C145.77 31.8827 146.573 32.2135 147.153 32.8133C147.732 33.413 148.036 34.2274 147.989 35.0602Z" fill="white"/>
<path fill-rule="evenodd" clip-rule="evenodd" d="M54.7636 12.7127C54.0177 11.8923 52.9579 11.4635 51.876 11.5444H48.9202V20.0684H51.876C54.3135 20.0684 55.7264 18.5031 55.7264 15.7798C55.8628 14.6588 55.5095 13.5332 54.7636 12.7127ZM51.734 18.8629H50.1911V12.7489H51.734C52.5031 12.7045 53.2511 13.0204 53.7733 13.6103C54.2955 14.2001 54.5374 15.0022 54.4327 15.7972C54.5456 16.5955 54.3072 17.4043 53.7837 17.999C53.2601 18.5937 52.5072 18.9111 51.734 18.8629Z" fill="white"/>
<path fill-rule="evenodd" clip-rule="evenodd" d="M58.5317 13.9695C57.5869 14.5803 57.0561 15.6961 57.162 16.8492C57.0541 18.0034 57.5844 19.1215 58.53 19.7335C59.4757 20.3456 60.6729 20.3456 61.6185 19.7335C62.5642 19.1215 63.0945 18.0034 62.9866 16.8492C63.0925 15.6961 62.5617 14.5803 61.6169 13.9695C60.6721 13.3588 59.4765 13.3588 58.5317 13.9695ZM60.0763 14.6393C61.1316 14.6393 61.733 15.4548 61.733 16.8492H61.733C61.733 18.2491 61.1317 19.0639 60.0763 19.0639C59.017 19.0639 58.421 18.2547 58.421 16.8492C58.421 15.4548 59.0169 14.6393 60.0763 14.6393Z" fill="white"/>
<path d="M70.7289 20.0683H69.4647L68.1883 15.3305H68.0919L66.8209 20.0683H65.5687L63.8665 13.6355H65.1026L66.2089 18.5441H66.2999L67.5696 13.6355H68.7388L70.0084 18.5441H70.1049L71.2057 13.6355H72.4245L70.7289 20.0683Z" fill="white"/>
<path d="M73.8562 13.6354H75.0294V14.6573H75.1205C75.4372 13.9049 76.1773 13.4447 76.9634 13.5113C77.572 13.4636 78.1685 13.7068 78.5843 14.1723C79.0001 14.6377 79.1902 15.2749 79.1008 15.9038V20.0681H77.8821V16.2226C77.8821 15.1889 77.4509 14.6748 76.5495 14.6748C76.1367 14.6547 75.736 14.8235 75.4526 15.1368C75.1692 15.4502 75.0312 15.8768 75.0749 16.3049V20.0682H73.8562L73.8562 13.6354Z" fill="white"/>
<path d="M81.0429 11.1243H82.2616V20.0682H81.0429V11.1243Z" fill="white"/>
<path fill-rule="evenodd" clip-rule="evenodd" d="M85.3259 13.9693C84.381 14.58 83.8501 15.6959 83.9559 16.849C83.8482 18.0033 84.3785 19.1213 85.3242 19.7334C86.2699 20.3454 87.4671 20.3454 88.4128 19.7334C89.3585 19.1213 89.8889 18.0033 89.7812 16.849C89.887 15.6959 89.3561 14.58 88.4112 13.9693C87.4663 13.3585 86.2707 13.3585 85.3259 13.9693ZM86.8702 14.6392C87.9256 14.6392 88.5269 15.4546 88.5269 16.849H88.5269C88.5269 18.249 87.9256 19.0637 86.8702 19.0637C85.8109 19.0637 85.2149 18.2546 85.2149 16.849C85.2149 15.4546 85.8108 14.6392 86.8702 14.6392Z" fill="white"/>
<path fill-rule="evenodd" clip-rule="evenodd" d="M93.3611 16.3286C91.8919 16.4235 91.0642 17.091 91.0642 18.2489C91.0663 18.798 91.2912 19.3205 91.6834 19.6873C92.0756 20.0541 92.5984 20.2309 93.1227 20.1741C93.8705 20.2101 94.5791 19.8243 94.9776 19.1641H95.074V20.0681H96.2472V15.6729C96.2472 14.3141 95.374 13.5112 93.8258 13.5112C92.4249 13.5112 91.4272 14.2199 91.3026 15.3248H92.4825C92.6178 14.87 93.0892 14.6099 93.7696 14.6099C94.6026 14.6099 95.0339 14.9935 95.0339 15.6729V16.2282L93.3611 16.3286ZM95.0339 17.1615V17.6993C95.0072 18.1093 94.8219 18.4904 94.5205 18.7555C94.2191 19.0206 93.8273 19.1469 93.4348 19.1055C92.7718 19.1055 92.2896 18.7686 92.2896 18.1896C92.2896 17.6225 92.6754 17.3212 93.5258 17.2619L95.0339 17.1615Z" fill="white"/>
<path fill-rule="evenodd" clip-rule="evenodd" d="M100.412 13.5287C98.852 13.5287 97.8489 14.8164 97.8489 16.849C97.8489 18.8866 98.8413 20.1743 100.412 20.1742C101.209 20.2048 101.956 19.7725 102.352 19.0519H102.448V20.0682H103.616V11.1243H102.397V14.6573H102.306C101.938 13.9307 101.2 13.4909 100.412 13.5287ZM100.758 19.0345C99.7253 19.0345 99.1078 18.2134 99.1078 16.849H99.1078C99.1078 15.4958 99.7319 14.6692 100.758 14.6692C101.778 14.6692 102.42 15.5139 102.42 16.8546C102.42 18.2016 101.785 19.0345 100.758 19.0345Z" fill="white"/>
<path fill-rule="evenodd" clip-rule="evenodd" d="M110.028 13.9695C109.083 14.5803 108.552 15.6961 108.658 16.8492C108.55 18.0034 109.081 19.1215 110.026 19.7335C110.972 20.3456 112.169 20.3456 113.115 19.7335C114.061 19.1215 114.591 18.0034 114.483 16.8492C114.589 15.6961 114.058 14.5803 113.113 13.9695C112.168 13.3588 110.973 13.3588 110.028 13.9695ZM111.573 14.6393C112.628 14.6393 113.229 15.4548 113.229 16.8492C113.229 18.2491 112.628 19.0639 111.573 19.0639C110.513 19.0639 109.917 18.2547 109.917 16.8492C109.917 15.4548 110.513 14.6393 111.573 14.6393Z" fill="white"/>
<path d="M116.118 13.6354H117.291V14.6573H117.382C117.699 13.9049 118.439 13.4447 119.225 13.5113C119.834 13.4636 120.43 13.7068 120.846 14.1723C121.262 14.6377 121.452 15.2749 121.363 15.9038V20.0681H120.144V16.2226C120.144 15.1889 119.713 14.6748 118.811 14.6748C118.399 14.6547 117.998 14.8235 117.715 15.1368C117.431 15.4502 117.293 15.8768 117.337 16.3049V20.0682H116.118V13.6354Z" fill="white"/>
<path d="M128.249 12.0339V13.6648H129.587V14.7341H128.249V18.0419C128.249 18.7157 128.516 19.0108 129.122 19.0108C129.278 19.0103 129.433 19.0005 129.587 18.9815V20.0389C129.368 20.0797 129.147 20.1014 128.924 20.1038C127.569 20.1038 127.029 19.6072 127.029 18.3669V14.7341H126.049V13.6647H127.029V12.0339H128.249Z" fill="white"/>
<path d="M131.252 11.1243H132.46V14.6692H132.556C132.888 13.9102 133.641 13.4494 134.439 13.5169C135.045 13.4825 135.633 13.7311 136.044 14.1949C136.456 14.6586 136.647 15.2893 136.566 15.915V20.0682H135.346V16.2282C135.346 15.2007 134.887 14.6803 134.026 14.6803C133.602 14.6441 133.184 14.8047 132.884 15.1191C132.584 15.4335 132.433 15.8698 132.471 16.3112V20.0682H131.252L131.252 11.1243Z" fill="white"/>
<path fill-rule="evenodd" clip-rule="evenodd" d="M140.997 20.1924C142.204 20.3288 143.331 19.5448 143.673 18.3314L142.499 18.3313C142.207 18.8777 141.626 19.1857 141.03 19.1112C140.57 19.1165 140.13 18.9195 139.817 18.5687C139.503 18.2178 139.347 17.7457 139.386 17.2683V17.1972H143.746V16.7542C143.746 14.7342 142.71 13.5113 140.991 13.5113C140.166 13.504 139.378 13.8702 138.832 14.515C138.285 15.1598 138.034 16.0197 138.144 16.8721C138.031 17.7221 138.283 18.5807 138.833 19.2201C139.382 19.8595 140.173 20.2151 140.997 20.1924ZM142.505 16.2583H139.386C139.38 15.8147 139.547 15.3876 139.848 15.0738C140.149 14.7601 140.559 14.5863 140.985 14.5918C141.405 14.5818 141.809 14.7571 142.099 15.0744C142.388 15.3918 142.536 15.8217 142.505 16.2583Z" fill="white"/>
</svg>
