<svg width="188" height="57" viewBox="0 0 188 57" fill="none" xmlns="http://www.w3.org/2000/svg">
<path d="M180.484 55.1252H6.94435C3.11703 55.1252 0 52.0335 0 48.2681V7.12521C0 3.34609 3.11703 0.268066 6.94435 0.268066H180.484C184.308 0.268066 187.429 3.34609 187.429 7.12521V48.2681C187.429 52.0335 184.308 55.1252 180.484 55.1252Z" fill="black"/>
<path fill-rule="evenodd" clip-rule="evenodd" d="M180.484 1.36589C183.694 1.36589 186.322 3.95485 186.322 7.12521V48.2681C186.322 51.4384 183.712 54.0274 180.484 54.0274H6.94435C3.73423 54.0274 1.10682 51.4384 1.10682 48.2681V7.12521C1.10682 3.95485 3.71699 1.36589 6.94435 1.36589H180.484ZM180.484 0.268066H6.94435C3.11703 0.268066 0 3.35977 0 7.12521V48.2681C0 52.0472 3.11703 55.1252 6.94435 55.1252H180.484C184.308 55.1252 187.429 52.0472 187.429 48.2681V7.12521C187.429 3.35977 184.308 0.268066 180.484 0.268066Z" fill="#A6A6A6"/>
<path fill-rule="evenodd" clip-rule="evenodd" d="M94.3718 16.248C95.2022 17.0193 96.2523 17.4111 97.4979 17.4111C98.7436 17.4111 99.7936 17.0224 100.621 16.2449C101.444 15.4921 101.87 14.5388 101.883 13.4096C101.883 12.3082 101.458 11.3548 100.621 10.5743C99.7765 9.80296 98.7264 9.41113 97.4945 9.41113C96.2488 9.41113 95.1988 9.80296 94.3718 10.5743C93.5345 11.3301 93.1089 12.2835 93.1089 13.4096C93.0884 14.4647 93.5482 15.4983 94.3718 16.248ZM57.2937 16.2634C58.1585 17.0255 59.2154 17.4111 60.4336 17.4111C61.7033 17.4111 62.7533 17.0286 63.5563 16.2758C64.2632 15.6402 64.6201 14.7794 64.6201 13.715C64.6201 13.5299 64.5892 13.3294 64.5583 13.135L64.5412 13.0301H60.2792V14.184H63.2612C63.1857 14.7301 62.9729 15.162 62.6298 15.4705C62.0498 15.995 61.3052 16.2603 60.4199 16.2603C59.5894 16.2603 58.8654 15.995 58.2683 15.4705C57.6677 14.9429 57.3623 14.2519 57.3623 13.4158C57.3623 12.5797 57.6677 11.8886 58.2683 11.361C58.8654 10.8365 59.5894 10.5712 60.4199 10.5712C61.3498 10.5712 62.0533 10.8458 62.5783 11.4073L62.6744 11.5091L63.6043 10.6884L63.522 10.5989C63.1891 10.2441 62.7396 9.95413 62.1871 9.74125C61.6243 9.5222 61.0375 9.41422 60.4336 9.41422C59.1982 9.41422 58.1413 9.79987 57.2937 10.5619C56.4358 11.3209 56 12.2804 56 13.4127C56 14.545 56.4358 15.5045 57.2937 16.2634ZM109.714 17.2476H108.4L104.375 11.4566L104.409 12.4994V17.2445H103.095V9.57774H104.594L104.636 9.63635L108.421 15.091L108.386 14.0513V9.57774H109.714V17.2476ZM86.2904 17.2476H87.6184V10.7316H89.9279V9.57774H83.981V10.7316H86.2904V17.2476ZM82.8966 17.2476H81.5686V9.57774H82.8966V17.2476ZM74.1049 17.2476H75.433V10.7316H77.7424V9.57774H71.7955V10.7316H74.1049V17.2476ZM70.9548 17.2353H65.8623V9.57774H70.9548V10.7316H67.1938V12.8357H70.5876V13.9773H67.1938V16.0814H70.9548V17.2353ZM97.4979 16.2573C96.6606 16.2573 95.94 15.9888 95.3463 15.4551C94.7664 14.9337 94.4747 14.2426 94.4747 13.4127C94.4747 12.5827 94.7698 11.8947 95.3532 11.3703C95.9366 10.8303 96.64 10.5681 97.5013 10.5681C98.3352 10.5681 99.0593 10.8365 99.6529 11.3703C100.233 11.8917 100.528 12.5827 100.528 13.4127C100.528 14.2426 100.233 14.9306 99.6495 15.4551C99.0627 15.995 98.3592 16.2573 97.4979 16.2573Z" fill="white"/>
<path fill-rule="evenodd" clip-rule="evenodd" d="M94.3752 30.6056C91.1335 30.6056 88.5059 33.0047 88.5059 36.314C88.5059 39.5932 91.1507 42.0224 94.3752 42.0224C97.6168 42.0224 100.244 39.6065 100.244 36.314C100.244 33.0047 97.6168 30.6056 94.3752 30.6056ZM94.3752 39.7605C92.6017 39.7605 91.0752 38.3283 91.0752 36.3006C91.0752 34.2428 92.6051 32.8407 94.3752 32.8407C96.1486 32.8407 97.6751 34.2428 97.6751 36.3006C97.6785 38.3417 96.1486 39.7605 94.3752 39.7605ZM81.5699 30.6056C78.3283 30.6056 75.7007 33.0047 75.7007 36.314C75.7007 39.5932 78.3454 42.0224 81.5699 42.0224C84.8115 42.0224 87.4391 39.6065 87.4391 36.314C87.4391 33.0047 84.8081 30.6056 81.5699 30.6056ZM81.5699 39.7605C79.7964 39.7605 78.27 38.3283 78.27 36.3006C78.27 34.2428 79.7999 32.8407 81.5699 32.8407C83.3433 32.8407 84.8698 34.2428 84.8698 36.3006C84.8698 38.3417 83.3433 39.7605 81.5699 39.7605ZM66.3326 32.3489V34.7648H72.2772C72.0954 36.1199 71.6358 37.1204 70.9326 37.8063C70.0613 38.6563 68.7166 39.5798 66.3463 39.5798C62.693 39.5798 59.8356 36.7021 59.8356 33.1386C59.8356 29.575 62.693 26.6973 66.3463 26.6973C68.3187 26.6973 69.756 27.4569 70.8228 28.4273L72.5791 26.7141C71.0972 25.3288 69.1248 24.2681 66.36 24.2681C61.3484 24.2681 57.1428 28.2499 57.1428 33.1252C57.1428 38.0138 61.3449 41.9823 66.36 41.9823C69.0665 41.9823 71.0972 41.119 72.7026 39.4928C74.3388 37.8967 74.8568 35.6448 74.8568 33.8278C74.8568 33.2624 74.8122 32.7538 74.7196 32.3221H66.3291C66.3326 32.3188 66.3326 32.3489 66.3326 32.3489ZM128.657 34.2294C128.167 32.9478 126.685 30.5922 123.646 30.5922C120.634 30.5922 118.13 32.9043 118.13 36.3006C118.13 39.5062 120.607 42.009 123.937 42.009C126.613 42.009 128.17 40.413 128.812 39.476L126.826 38.1778C126.167 39.1314 125.251 39.7571 123.951 39.7571C122.637 39.7571 121.718 39.1749 121.107 38.0272L128.932 34.8651C128.932 34.8685 128.657 34.2294 128.657 34.2294ZM120.679 36.1366C120.617 33.9316 122.435 32.8106 123.735 32.8106C124.761 32.8106 125.615 33.3025 125.906 34.0186L120.679 36.1366ZM114.322 41.6677H116.892V24.8971H114.322V41.6677ZM110.103 31.8737H110.01C109.431 31.2012 108.33 30.5922 106.923 30.5922C104.004 30.5922 101.315 33.0984 101.315 36.3173C101.315 39.5229 103.99 41.999 106.923 41.999C108.312 41.999 109.431 41.3867 110.01 40.7007H110.103V41.5205C110.103 43.6988 108.909 44.8733 106.985 44.8733C105.41 44.8733 104.433 43.7691 104.035 42.8456L101.802 43.7557C102.443 45.2614 104.155 47.1252 106.981 47.1252C109.993 47.1252 112.545 45.3953 112.545 41.1759V30.9335H110.117V31.8737C110.12 31.8737 110.103 31.8737 110.103 31.8737ZM107.153 39.7605C105.38 39.7605 103.898 38.315 103.898 36.3173C103.898 34.303 105.38 32.8441 107.153 32.8441C108.909 32.8441 110.271 34.3197 110.271 36.3173C110.288 38.315 108.913 39.7605 107.153 39.7605ZM140.687 24.8971H134.544V41.6677H137.113V35.3169H140.691C143.535 35.3169 146.33 33.3059 146.33 30.1137C146.33 26.9215 143.545 24.8971 140.687 24.8971ZM140.763 32.9746H137.11V27.2193H140.763C142.687 27.2193 143.775 28.7686 143.775 30.097C143.775 31.412 142.674 32.9746 140.763 32.9746ZM156.628 30.5754C154.762 30.5754 152.838 31.3819 152.042 33.1386L154.319 34.0621C154.81 33.1386 155.709 32.824 156.659 32.824C157.99 32.824 159.334 33.6003 159.365 34.9856V35.1629C158.906 34.9086 157.897 34.5205 156.69 34.5205C154.23 34.5205 151.736 35.8322 151.736 38.2915C151.736 40.5434 153.753 41.989 156 41.989C157.726 41.989 158.676 41.2294 159.269 40.3494H159.362V41.6477H161.839V35.2232C161.839 32.2318 159.561 30.5754 156.628 30.5754ZM156.306 39.7605C155.465 39.7605 154.289 39.3589 154.289 38.3283C154.289 37.0301 155.757 36.5382 157.009 36.5382C158.141 36.5382 158.676 36.7758 159.348 37.1037C159.163 38.6094 157.859 39.7471 156.306 39.7605ZM170.874 30.9335L167.924 38.2079H167.831L164.775 30.9335H162.01L166.596 41.1022L163.983 46.7538H166.658L173.714 30.9335H170.874ZM147.747 41.6677H150.316V24.8971H147.747V41.6677Z" fill="white"/>
<path fill-rule="evenodd" clip-rule="evenodd" d="M14.3596 10.6461C13.9506 11.0726 13.7144 11.7243 13.7144 12.5774V42.8333C13.7144 43.6863 13.9506 44.3381 14.3737 44.7475L14.483 44.8397L32.0001 27.8879V27.5091L14.4689 10.554L14.3596 10.6461Z" fill="url(#paint0_linear)"/>
<path fill-rule="evenodd" clip-rule="evenodd" d="M37.5783 34.5539L32 28.4807V28.0556L37.5783 21.9824L37.6995 22.0631L44.2978 26.146C46.1864 27.3042 46.1864 29.2174 44.2978 30.3903L37.6995 34.4732L37.5783 34.5539Z" fill="url(#paint1_linear)"/>
<path fill-rule="evenodd" clip-rule="evenodd" d="M36.5715 32.5556L30.7889 26.554L13.7144 44.2753C14.3394 44.9701 15.388 45.0481 16.5595 44.371L36.5715 32.5556Z" fill="url(#paint2_linear)"/>
<path fill-rule="evenodd" clip-rule="evenodd" d="M36.5715 22.8345L16.5595 11.03C15.388 10.3347 14.336 10.4305 13.7144 11.1257L30.7889 28.8397L36.5715 22.8345Z" fill="url(#paint3_linear)"/>
<path opacity="0.2" d="M37.5777 32.2681L17.7024 44.1443C16.5923 44.8161 15.6018 44.7694 14.9631 44.1587L14.8572 44.27L14.9631 44.367C15.6018 44.9741 16.5923 45.0244 17.7024 44.3526L37.7143 32.3974L37.5777 32.2681Z" fill="black"/>
<path opacity="0.12" d="M44.3429 30.5981L37.7144 34.4324L37.8336 34.5539L44.3264 30.7939C45.2572 30.2538 45.7144 29.545 45.7144 28.8396C45.658 29.4876 45.1843 30.1019 44.3429 30.5981Z" fill="black"/>
<path opacity="0.25" fill-rule="evenodd" clip-rule="evenodd" d="M17.2276 11.2416L44.2655 26.9923C45.1438 27.4993 45.6383 28.1624 45.7144 28.8397C45.7144 28.0986 45.2372 27.354 44.2655 26.7866L17.2276 11.036C15.2877 9.89777 13.7144 10.8481 13.7144 13.1209V13.3266C13.7144 11.0502 15.2877 10.1176 17.2276 11.2416Z" fill="white"/>
<defs>
<linearGradient id="paint0_linear" x1="24.3053" y1="-9.99476" x2="-3.62798" y2="-2.30562" gradientUnits="userSpaceOnUse">
<stop stop-color="#00A0FF"/>
<stop offset="0.00657" stop-color="#00A1FF"/>
<stop offset="0.2601" stop-color="#00BEFF"/>
<stop offset="0.5122" stop-color="#00D2FF"/>
<stop offset="0.7604" stop-color="#00DFFF"/>
<stop offset="1" stop-color="#00E3FF"/>
</linearGradient>
<linearGradient id="paint1_linear" x1="46.7607" y1="13.2967" x2="14.0958" y2="13.2967" gradientUnits="userSpaceOnUse">
<stop stop-color="#FFE000"/>
<stop offset="0.4087" stop-color="#FFBD00"/>
<stop offset="0.7754" stop-color="#FFA500"/>
<stop offset="1" stop-color="#FF9C00"/>
</linearGradient>
<linearGradient id="paint2_linear" x1="13.2076" y1="17.3513" x2="-9.83329" y2="54.716" gradientUnits="userSpaceOnUse">
<stop stop-color="#FF3A44"/>
<stop offset="1" stop-color="#C31162"/>
</linearGradient>
<linearGradient id="paint3_linear" x1="0.380488" y1="6.21425" x2="10.6679" y2="22.9072" gradientUnits="userSpaceOnUse">
<stop stop-color="#32A071"/>
<stop offset="0.0685" stop-color="#2DA771"/>
<stop offset="0.4762" stop-color="#15CF74"/>
<stop offset="0.8009" stop-color="#06E775"/>
<stop offset="1" stop-color="#00F076"/>
</linearGradient>
</defs>
</svg>
